<svg viewBox="0 0 48 48" xmlns="http://www.w3.org/2000/svg" xmlns:xlink="http://www.w3.org/1999/xlink" >
<defs>



 <path id="i-438" d="M0,0v48h48V0H0z M46,46H2V2h44V46z M19,33c4.963,0,9-4.037,9-9s-4.037-9-9-9s-9,4.037-9,9S14.037,33,19,33z M20,17.08 c3.059,0.439,5.479,2.861,5.92,5.92H20V17.08z M20,25h5.92c-0.44,3.059-2.861,5.479-5.92,5.92V25z M18,17.08V23h-5.92 C12.521,19.941,14.941,17.52,18,17.08z M18,25v5.92c-3.059-0.441-5.479-2.861-5.92-5.92H18z M43,38h1V26h-1v-6h1V10h-1V5H5v38h38V38 z M41,10h-1v10h1v6h-1v12h1v3H7V7h34V10z" fill="#FBC02D"/> 
</defs>

<use x="0" y="0" xlink:href="#i-438"/>

</svg>