<svg width="22" height="21" viewBox="0 0 22 21" fill="none" xmlns="http://www.w3.org/2000/svg">
<path d="M12.53 0L11.45 1.08L13.05 2.68C13.27 2.93 13.38 3.22 13.38 3.55C13.38 3.88 13.27 4.19 13.05 4.41L9.5 8.02L10.5 9.1L14.13 5.49C14.66 4.9 14.92 4.25 14.92 3.55C14.92 2.85 14.66 2.19 14.13 1.6L12.53 0ZM8.55 2.02L7.47 3.1L8.08 3.66C8.3 3.88 8.41 4.18 8.41 4.55C8.41 4.92 8.3 5.22 8.08 5.44L7.47 6L8.55 7.08L9.11 6.47C9.64 5.88 9.91 5.24 9.91 4.55C9.91 3.83 9.64 3.18 9.11 2.58L8.55 2.02ZM19 3.61C18.31 3.61 17.67 3.88 17.08 4.41L11.45 10.05L12.53 11.05L18.11 5.49C18.36 5.24 18.66 5.11 19 5.11C19.34 5.11 19.64 5.24 19.89 5.49L20.5 6.1L21.53 5.02L20.97 4.41C20.38 3.88 19.72 3.61 19 3.61ZM5 6.55L0 20.55L14 15.55L5 6.55ZM17 9.61C16.3 9.61 15.66 9.88 15.06 10.41L13.47 12L14.55 13.08L16.14 11.49C16.39 11.24 16.67 11.11 17 11.11C17.33 11.11 17.63 11.24 17.88 11.49L19.5 13.08L20.55 12.05L18.95 10.41C18.36 9.88 17.7 9.61 17 9.61Z" fill="#FBC02D"/>
</svg>
