<?xml version="1.0" encoding="UTF-8" standalone="no"?> <svg xmlns="http://www.w3.org/2000/svg" viewBox="0 0 64 64"><g id="Layer_35" data-name="Layer 35"><path d="M48.26,15.74A23,23,0,1,0,15.74,48.26,23,23,0,1,0,48.26,15.74ZM46.85,46.85A21,21,0,1,1,53,32,20.85,20.85,0,0,1,46.85,46.85Z" fill="#FBC02D"/><path d="M32,22a10,10,0,1,0,7.07,2.93A9.93,9.93,0,0,0,32,22Zm5.66,15.66A8,8,0,1,1,40,32,7.95,7.95,0,0,1,37.66,37.66Z" fill="#FBC02D"/><path d="M34.62,26.69a3.7,3.7,0,0,0-5.24,5.23l.06,0-.06.06a3.71,3.71,0,0,0,0,5.23,3.69,3.69,0,0,0,5.24,0,3.71,3.71,0,0,0,0-5.23L34.56,32l.06,0A3.71,3.71,0,0,0,34.62,26.69Zm-1.41,9.16a1.71,1.71,0,0,1-2.42-2.41,1.77,1.77,0,0,1,.88-.47c.11,0,.22,0,.33,0s.22,0,.33,0a1.77,1.77,0,0,1,.88.47A1.71,1.71,0,0,1,33.21,35.85Zm0-5.34a1.67,1.67,0,0,1-.88.46h-.66a1.67,1.67,0,0,1-.88-.46,1.71,1.71,0,1,1,2.42,0Z" fill="#FBC02D"/></g></svg>