<svg width="11" height="15" viewBox="0 0 11 15" fill="none" xmlns="http://www.w3.org/2000/svg">
<path d="M1.51017 0.00025829C1.28089 -0.00461778 1.05574 0.059649 0.866014 0.184223C0.676289 0.308796 0.531418 0.48752 0.451544 0.695385C0.371671 0.903251 0.360762 1.12998 0.420335 1.34412C0.479907 1.55826 0.607001 1.74904 0.783947 1.89011L7.53543 7.48275L0.783947 13.0734C0.661545 13.1604 0.559036 13.2708 0.48284 13.3979C0.406644 13.525 0.358402 13.6659 0.341136 13.8119C0.323869 13.9578 0.33795 14.1056 0.382497 14.246C0.427043 14.3864 0.501095 14.5165 0.600016 14.628C0.698936 14.7394 0.820595 14.8298 0.957372 14.8937C1.09415 14.9577 1.2431 14.9935 1.39489 14.9992C1.54668 15.0049 1.69805 14.9802 1.83951 14.9267C1.98098 14.8732 2.10949 14.792 2.217 14.6882L9.94683 8.2933C10.0682 8.19314 10.1657 8.06881 10.2325 7.92869C10.2994 7.78858 10.334 7.63607 10.334 7.48177C10.334 7.32746 10.2994 7.17495 10.2325 7.03484C10.1657 6.89472 10.0682 6.77027 9.94683 6.67011L2.217 0.269006C2.02173 0.101299 1.77127 0.0061999 1.51017 0.00025829Z" fill="white"/>
</svg>
